<svg xmlns="http://www.w3.org/2000/svg" viewBox="0 0 512 512">
  <defs>
    <linearGradient id="bg" x1="0%" y1="0%" x2="100%" y2="100%">
      <stop offset="0%" style="stop-color:#1F4E79"/>
      <stop offset="100%" style="stop-color:#2E74B5"/>
    </linearGradient>
  </defs>
  <!-- Background -->
  <rect width="512" height="512" rx="80" fill="url(#bg)"/>
  <!-- Book icon -->
  <g transform="translate(96, 96)" fill="white">
    <path d="M160 0C124.7 0 96 28.7 96 64V352c0 35.3 28.7 64 64 64H288c35.3 0 64-28.7 64-64V64c0-35.3-28.7-64-64-64H160zM144 64c0-8.8 7.2-16 16-16H288c8.8 0 16 7.2 16 16V352c0 8.8-7.2 16-16 16H160c-8.8 0-16-7.2-16-16V64z"/>
    <path d="M0 96C0 60.7 28.7 32 64 32c17.7 0 32 14.3 32 32s-14.3 32-32 32c-8.8 0-16 7.2-16 16V336c0 8.8 7.2 16 16 16c17.7 0 32 14.3 32 32s-14.3 32-32 32C28.7 416 0 387.3 0 352V96z"/>
  </g>
  <!-- Arabic text: بسم الله -->
  <text x="256" y="420" text-anchor="middle" font-family="Amiri, serif" font-size="48" fill="white" opacity="0.9">بِسْمِ اللَّهِ</text>
</svg>
